<svg width="49" height="39" viewBox="0 0 49 39" fill="none" xmlns="http://www.w3.org/2000/svg">
<g id="Group 188">
<path id="Vector" d="M29.0546 33.1262C29.7485 32.7905 30.2529 32.2347 30.4568 31.5811C30.6608 30.9275 30.5476 30.2296 30.1421 29.6411L28.6134 27.4219C28.2079 26.8333 27.5434 26.4022 26.7661 26.2235C25.9887 26.0447 25.1622 26.1329 24.4683 26.4687C19.2357 29.0006 16.1781 24.5622 14.6494 22.343C13.1206 20.1238 10.0631 15.6854 15.2957 13.1535C15.9896 12.8178 16.494 12.2619 16.698 11.6083C16.9019 10.9548 16.7887 10.2569 16.3833 9.66835L14.8545 7.44916C14.449 6.8606 13.7845 6.42952 13.0072 6.25075C12.2298 6.07199 11.4033 6.16019 10.7094 6.49594C4.16862 9.66086 1.77291 13.779 9.41673 24.875C17.0606 35.9709 22.5138 36.2911 29.0546 33.1262Z" stroke="#FFB7D1" stroke-width="2" stroke-linecap="round" stroke-linejoin="round"/>
<path id="Vector_2" d="M42.9794 23.9621C44.3692 19.4989 43.5948 14.7346 40.8265 10.716C38.0581 6.69743 33.5223 3.75324 28.2154 2.53032M34.9691 22.12C35.3831 20.7945 35.4824 19.4104 35.2614 18.0469C35.0404 16.6834 34.5034 15.3672 33.6811 14.1735C32.8587 12.9798 31.7672 11.9319 30.4687 11.0897C29.1703 10.2476 27.6904 9.62766 26.1137 9.26539M27.0018 20.2645C27.2796 19.3714 27.1246 18.4181 26.5706 17.6141C26.0167 16.81 25.1092 16.2208 24.0474 15.9759" stroke="#FDCEDF" stroke-width="2" stroke-linecap="round" stroke-linejoin="round"/>
</g>
</svg>
